{
	"asset":{
		"generator":"Khronos glTF Blender I/O v4.2.57",
		"version":"2.0"
	},
	"extensionsUsed":[
		"KHR_materials_clearcoat",
		"KHR_materials_specular"
	],
	"scene":0,
	"scenes":[
		{
			"name":"Scene",
			"nodes":[
				59
			]
		}
	],
	"nodes":[
		{
			"mesh":0,
			"name":"Object_8"
		},
		{
			"children":[
				0
			],
			"name":"Object_4_4"
		},
		{
			"children":[
				1
			],
			"name":"gr_supra_gt300.001_0_3",
			"rotation":[
				0.70710688829422,
				0,
				0,
				0.7071066498756409
			]
		},
		{
			"mesh":1,
			"name":"Object_11"
		},
		{
			"children":[
				3
			],
			"name":"Object_6_6"
		},
		{
			"children":[
				4
			],
			"name":"gr_supra_gt300.002_1_5",
			"rotation":[
				0.70710688829422,
				0,
				0,
				0.7071066498756409
			]
		},
		{
			"mesh":2,
			"name":"Object_14"
		},
		{
			"children":[
				6
			],
			"name":"Object_8_8"
		},
		{
			"children":[
				7
			],
			"name":"gr_supra_gt300.003_2_7",
			"rotation":[
				0.70710688829422,
				0,
				0,
				0.7071066498756409
			]
		},
		{
			"mesh":3,
			"name":"Object_17"
		},
		{
			"children":[
				9
			],
			"name":"Object_10_10"
		},
		{
			"children":[
				10
			],
			"name":"gr_supra_gt300.004_3_9",
			"rotation":[
				0.70710688829422,
				0,
				0,
				0.7071066498756409
			]
		},
		{
			"mesh":4,
			"name":"Object_20"
		},
		{
			"children":[
				12
			],
			"name":"Object_12_12"
		},
		{
			"children":[
				13
			],
			"name":"gr_supra_gt300.005_4_11",
			"rotation":[
				0.70710688829422,
				0,
				0,
				0.7071066498756409
			]
		},
		{
			"mesh":5,
			"name":"Object_23"
		},
		{
			"children":[
				15
			],
			"name":"Object_14_14"
		},
		{
			"children":[
				16
			],
			"name":"gr_supra_gt300.006_5_13",
			"rotation":[
				0.70710688829422,
				0,
				0,
				0.7071066498756409
			]
		},
		{
			"mesh":6,
			"name":"Object_26"
		},
		{
			"children":[
				18
			],
			"name":"Object_16_16"
		},
		{
			"children":[
				19
			],
			"name":"gr_supra_gt300.007_6_15",
			"rotation":[
				0.70710688829422,
				0,
				0,
				0.7071066498756409
			]
		},
		{
			"mesh":7,
			"name":"Object_29"
		},
		{
			"children":[
				21
			],
			"name":"Object_18_18"
		},
		{
			"children":[
				22
			],
			"name":"gr_supra_gt300.008_7_17",
			"rotation":[
				0.70710688829422,
				0,
				0,
				0.7071066498756409
			]
		},
		{
			"mesh":8,
			"name":"Object_32"
		},
		{
			"children":[
				24
			],
			"name":"Object_20_20"
		},
		{
			"children":[
				25
			],
			"name":"gr_supra_gt300.009_8_19",
			"rotation":[
				0.70710688829422,
				0,
				0,
				0.7071066498756409
			]
		},
		{
			"mesh":9,
			"name":"Object_35"
		},
		{
			"children":[
				27
			],
			"name":"Object_22_22"
		},
		{
			"children":[
				28
			],
			"name":"gr_supra_gt300.010_9_21",
			"rotation":[
				0.70710688829422,
				0,
				0,
				0.7071066498756409
			]
		},
		{
			"mesh":10,
			"name":"Object_38"
		},
		{
			"children":[
				30
			],
			"name":"Object_24_24"
		},
		{
			"children":[
				31
			],
			"name":"gr_supra_gt300.011_10_23",
			"rotation":[
				0.70710688829422,
				0,
				0,
				0.7071066498756409
			]
		},
		{
			"mesh":11,
			"name":"Object_41"
		},
		{
			"children":[
				33
			],
			"name":"Object_26_26"
		},
		{
			"children":[
				34
			],
			"name":"gr_supra_gt300.012_11_25",
			"rotation":[
				0.70710688829422,
				0,
				0,
				0.7071066498756409
			]
		},
		{
			"mesh":12,
			"name":"Object_44"
		},
		{
			"children":[
				36
			],
			"name":"Object_28_28"
		},
		{
			"children":[
				37
			],
			"name":"gr_supra_gt300.013_12_27",
			"rotation":[
				0.70710688829422,
				0,
				0,
				0.7071066498756409
			]
		},
		{
			"mesh":13,
			"name":"Object_47"
		},
		{
			"children":[
				39
			],
			"name":"Object_30_30"
		},
		{
			"children":[
				40
			],
			"name":"gr_supra_gt300.014_13_29",
			"rotation":[
				0.70710688829422,
				0,
				0,
				0.7071066498756409
			]
		},
		{
			"mesh":14,
			"name":"Object_50"
		},
		{
			"children":[
				42
			],
			"name":"Object_32_32"
		},
		{
			"children":[
				43
			],
			"name":"gr_supra_gt300.015_14_31",
			"rotation":[
				0.70710688829422,
				0,
				0,
				0.7071066498756409
			]
		},
		{
			"mesh":15,
			"name":"Object_53"
		},
		{
			"children":[
				45
			],
			"name":"Object_34_34"
		},
		{
			"children":[
				46
			],
			"name":"gr_supra_gt300.016_15_33",
			"rotation":[
				0.70710688829422,
				0,
				0,
				0.7071066498756409
			]
		},
		{
			"mesh":16,
			"name":"Object_59"
		},
		{
			"children":[
				48
			],
			"name":"Object_38_38"
		},
		{
			"children":[
				49
			],
			"name":"gr_supra_gt300.017_17_37",
			"rotation":[
				0.70710688829422,
				0,
				0,
				0.7071066498756409
			]
		},
		{
			"mesh":17,
			"name":"Object_56"
		},
		{
			"children":[
				51
			],
			"name":"Object_36_36"
		},
		{
			"children":[
				52
			],
			"name":"gr_supra_gt300.018_16_35",
			"rotation":[
				0.70710688829422,
				0,
				0,
				0.7071066498756409
			]
		},
		{
			"children":[
				2,
				5,
				8,
				11,
				14,
				17,
				20,
				23,
				26,
				29,
				32,
				35,
				38,
				41,
				44,
				47,
				50,
				53
			],
			"name":"GLTF_SceneRootNode_2",
			"rotation":[
				0.70710688829422,
				0,
				0,
				0.7071066498756409
			]
		},
		{
			"children":[
				54
			],
			"name":"root_1"
		},
		{
			"children":[
				55
			],
			"name":"Sketchfab_model_0",
			"rotation":[
				-0.70710688829422,
				0,
				0,
				0.7071066498756409
			]
		},
		{
			"children":[
				56
			],
			"name":"GLTF_SceneRootNode",
			"rotation":[
				0.70710688829422,
				0,
				0,
				0.7071066498756409
			]
		},
		{
			"children":[
				57
			],
			"name":"root"
		},
		{
			"children":[
				58
			],
			"name":"Sketchfab_model",
			"rotation":[
				0.7071068286895752,
				0,
				0,
				0.7071068286895752
			]
		}
	],
	"materials":[
		{
			"doubleSided":true,
			"extensions":{
				"KHR_materials_specular":{
					"specularFactor":0.6567639112472534
				}
			},
			"name":"05_-_Default",
			"pbrMetallicRoughness":{
				"baseColorTexture":{
					"index":0
				},
				"metallicFactor":0.9310504794120789,
				"roughnessFactor":0.16914337873458862
			}
		},
		{
			"doubleSided":true,
			"extensions":{
				"KHR_materials_clearcoat":{
					"clearcoatFactor":1,
					"clearcoatRoughnessFactor":0.03999999910593033
				}
			},
			"name":"rims_chromes",
			"pbrMetallicRoughness":{
				"baseColorTexture":{
					"index":1
				},
				"roughnessFactor":0.3337152898311615
			}
		},
		{
			"doubleSided":true,
			"extensions":{
				"KHR_materials_specular":{
					"specularFactor":0.20000000298023224
				}
			},
			"name":"19_-_Default",
			"pbrMetallicRoughness":{
				"baseColorTexture":{
					"index":2
				},
				"metallicFactor":0.6080020070075989,
				"roughnessFactor":0.3459058105945587
			}
		},
		{
			"doubleSided":true,
			"extensions":{
				"KHR_materials_clearcoat":{
					"clearcoatFactor":1,
					"clearcoatRoughnessFactor":0.16304811835289001
				},
				"KHR_materials_specular":{
					"specularFactor":0.20000000298023224
				}
			},
			"name":"04_-_Default",
			"pbrMetallicRoughness":{
				"baseColorTexture":{
					"index":3
				},
				"metallicFactor":0,
				"roughnessFactor":0.8999999761581421
			}
		},
		{
			"doubleSided":true,
			"name":"03_-_Default",
			"pbrMetallicRoughness":{
				"baseColorFactor":[
					0.790859580039978,
					0.790859580039978,
					0.790859580039978,
					1
				],
				"baseColorTexture":{
					"index":4
				},
				"roughnessFactor":0.20571500062942505
			}
		},
		{
			"doubleSided":true,
			"extensions":{
				"KHR_materials_clearcoat":{
					"clearcoatFactor":1,
					"clearcoatRoughnessFactor":0.03999999910593033
				}
			},
			"name":"01_-_Default",
			"pbrMetallicRoughness":{
				"baseColorFactor":[
					0.8030500411987305,
					0.8030500411987305,
					0.8030500411987305,
					1
				],
				"baseColorTexture":{
					"index":5
				},
				"metallicFactor":0.9493362307548523,
				"roughnessFactor":0.5531445145606995
			}
		},
		{
			"alphaMode":"BLEND",
			"doubleSided":true,
			"extensions":{
				"KHR_materials_clearcoat":{
					"clearcoatFactor":1,
					"clearcoatRoughnessFactor":0.0899050384759903
				}
			},
			"name":"06_-_Default",
			"pbrMetallicRoughness":{
				"baseColorFactor":[
					1,
					1,
					1,
					0.14476199448108673
				],
				"baseColorTexture":{
					"index":6
				},
				"roughnessFactor":0.43123939633369446
			}
		},
		{
			"doubleSided":true,
			"extensions":{
				"KHR_materials_specular":{
					"specularFactor":0.10000000149011612
				}
			},
			"name":"20_-_Default",
			"pbrMetallicRoughness":{
				"baseColorTexture":{
					"index":7
				},
				"metallicFactor":0,
				"roughnessFactor":0.8999999761581421
			}
		},
		{
			"doubleSided":true,
			"name":"08_-_Default",
			"pbrMetallicRoughness":{
				"baseColorTexture":{
					"index":8
				},
				"metallicFactor":0,
				"roughnessFactor":0.8999999761581421
			}
		},
		{
			"doubleSided":true,
			"extensions":{
				"KHR_materials_specular":{
					"specularFactor":0.7603832483291626
				}
			},
			"name":"11_-_Default",
			"pbrMetallicRoughness":{
				"baseColorFactor":[
					0.4495251774787903,
					0.4495251774787903,
					0.4495251774787903,
					1
				],
				"baseColorTexture":{
					"index":9
				},
				"metallicFactor":0.8030500411987305,
				"roughnessFactor":0.31542953848838806
			}
		},
		{
			"doubleSided":true,
			"name":"09_-_Default",
			"pbrMetallicRoughness":{
				"baseColorTexture":{
					"index":10
				},
				"roughnessFactor":0.6019065976142883
			}
		},
		{
			"doubleSided":true,
			"extensions":{
				"KHR_materials_specular":{
					"specularFactor":0.6262876391410828
				}
			},
			"name":"10_-_Default",
			"pbrMetallicRoughness":{
				"baseColorTexture":{
					"index":11
				},
				"metallicFactor":0.888383686542511,
				"roughnessFactor":0.8999999761581421
			}
		},
		{
			"doubleSided":true,
			"extensions":{
				"KHR_materials_specular":{
					"specularFactor":0.10000000149011612
				}
			},
			"name":"INT_DETAILS_PLASTIC_NM.001",
			"pbrMetallicRoughness":{
				"baseColorTexture":{
					"index":12
				},
				"metallicFactor":0,
				"roughnessFactor":0.8999999761581421
			}
		},
		{
			"doubleSided":true,
			"name":"INT_LED.001",
			"pbrMetallicRoughness":{
				"baseColorTexture":{
					"index":13
				},
				"metallicFactor":0,
				"roughnessFactor":0.8999999761581421
			}
		},
		{
			"doubleSided":true,
			"extensions":{
				"KHR_materials_specular":{
					"specularFactor":0.30000001192092896
				}
			},
			"name":"INT_LCD.001",
			"pbrMetallicRoughness":{
				"baseColorTexture":{
					"index":14
				},
				"metallicFactor":0,
				"roughnessFactor":0.745048999786377
			}
		},
		{
			"doubleSided":true,
			"name":"material_0",
			"pbrMetallicRoughness":{
				"metallicFactor":0,
				"roughnessFactor":0.6000000238418579
			}
		},
		{
			"alphaMode":"BLEND",
			"doubleSided":true,
			"extensions":{
				"KHR_materials_clearcoat":{
					"clearcoatFactor":1,
					"clearcoatRoughnessFactor":0.03999999910593033
				}
			},
			"name":"windows_int",
			"pbrMetallicRoughness":{
				"baseColorFactor":[
					1,
					1,
					1,
					0.5958113670349121
				],
				"baseColorTexture":{
					"index":15
				},
				"roughnessFactor":0.24228645861148834
			}
		}
	],
	"meshes":[
		{
			"name":"Object_0",
			"primitives":[
				{
					"attributes":{
						"POSITION":0,
						"NORMAL":1,
						"TEXCOORD_0":2
					},
					"indices":3,
					"material":0
				}
			]
		},
		{
			"name":"Object_1",
			"primitives":[
				{
					"attributes":{
						"POSITION":4,
						"NORMAL":5,
						"TEXCOORD_0":6
					},
					"indices":7,
					"material":1
				}
			]
		},
		{
			"name":"Object_2",
			"primitives":[
				{
					"attributes":{
						"POSITION":8,
						"NORMAL":9,
						"TEXCOORD_0":10
					},
					"indices":11,
					"material":2
				}
			]
		},
		{
			"name":"Object_3",
			"primitives":[
				{
					"attributes":{
						"POSITION":12,
						"NORMAL":13,
						"TEXCOORD_0":14
					},
					"indices":15,
					"material":3
				}
			]
		},
		{
			"name":"Object_4",
			"primitives":[
				{
					"attributes":{
						"POSITION":16,
						"NORMAL":17,
						"TEXCOORD_0":18
					},
					"indices":19,
					"material":4
				}
			]
		},
		{
			"name":"Object_5",
			"primitives":[
				{
					"attributes":{
						"POSITION":20,
						"NORMAL":21,
						"TEXCOORD_0":22,
						"TEXCOORD_1":23,
						"TEXCOORD_2":24
					},
					"indices":25,
					"material":5
				}
			]
		},
		{
			"name":"Object_6",
			"primitives":[
				{
					"attributes":{
						"POSITION":26,
						"NORMAL":27,
						"TEXCOORD_0":28
					},
					"indices":29,
					"material":6
				}
			]
		},
		{
			"name":"Object_7",
			"primitives":[
				{
					"attributes":{
						"POSITION":30,
						"NORMAL":31,
						"TEXCOORD_0":32
					},
					"indices":33,
					"material":7
				}
			]
		},
		{
			"name":"Object_8",
			"primitives":[
				{
					"attributes":{
						"POSITION":34,
						"NORMAL":35,
						"TEXCOORD_0":36
					},
					"indices":37,
					"material":8
				}
			]
		},
		{
			"name":"Object_9",
			"primitives":[
				{
					"attributes":{
						"POSITION":38,
						"NORMAL":39,
						"TEXCOORD_0":40
					},
					"indices":41,
					"material":9
				}
			]
		},
		{
			"name":"Object_10",
			"primitives":[
				{
					"attributes":{
						"POSITION":42,
						"NORMAL":43,
						"TEXCOORD_0":44
					},
					"indices":45,
					"material":10
				}
			]
		},
		{
			"name":"Object_11",
			"primitives":[
				{
					"attributes":{
						"POSITION":46,
						"NORMAL":47,
						"TEXCOORD_0":48
					},
					"indices":49,
					"material":11
				}
			]
		},
		{
			"name":"Object_12",
			"primitives":[
				{
					"attributes":{
						"POSITION":50,
						"NORMAL":51,
						"TEXCOORD_0":52,
						"TEXCOORD_1":53
					},
					"indices":54,
					"material":12
				}
			]
		},
		{
			"name":"Object_13",
			"primitives":[
				{
					"attributes":{
						"POSITION":55,
						"NORMAL":56,
						"TEXCOORD_0":57
					},
					"indices":58,
					"material":13
				}
			]
		},
		{
			"name":"Object_14",
			"primitives":[
				{
					"attributes":{
						"POSITION":59,
						"NORMAL":60,
						"TEXCOORD_0":61
					},
					"indices":62,
					"material":14
				}
			]
		},
		{
			"name":"Object_15",
			"primitives":[
				{
					"attributes":{
						"POSITION":63,
						"NORMAL":64,
						"TEXCOORD_0":65
					},
					"indices":66,
					"material":15
				}
			]
		},
		{
			"name":"Object_17",
			"primitives":[
				{
					"attributes":{
						"POSITION":67,
						"NORMAL":68,
						"TEXCOORD_0":69
					},
					"indices":70,
					"material":16
				}
			]
		},
		{
			"name":"Object_16",
			"primitives":[
				{
					"attributes":{
						"POSITION":71,
						"NORMAL":72,
						"TEXCOORD_0":73
					},
					"indices":74,
					"material":16
				}
			]
		}
	],
	"textures":[
		{
			"sampler":0,
			"source":0
		},
		{
			"sampler":0,
			"source":1
		},
		{
			"sampler":0,
			"source":1
		},
		{
			"sampler":0,
			"source":2
		},
		{
			"sampler":0,
			"source":3
		},
		{
			"sampler":0,
			"source":4
		},
		{
			"sampler":0,
			"source":5
		},
		{
			"sampler":0,
			"source":6
		},
		{
			"sampler":0,
			"source":7
		},
		{
			"sampler":0,
			"source":8
		},
		{
			"sampler":0,
			"source":9
		},
		{
			"sampler":0,
			"source":3
		},
		{
			"sampler":0,
			"source":10
		},
		{
			"sampler":0,
			"source":11
		},
		{
			"sampler":0,
			"source":12
		},
		{
			"sampler":0,
			"source":13
		}
	],
	"images":[
		{
			"mimeType":"image/png",
			"name":"05_-_Default_baseColor",
			"uri":"textures/05_-_Default_baseColor.png"
		},
		{
			"mimeType":"image/png",
			"name":"rims_chromes_baseColor",
			"uri":"textures/rims_chromes_baseColor.png"
		},
		{
			"mimeType":"image/png",
			"name":"04_-_Default_baseColor",
			"uri":"textures/04_-_Default_baseColor.png"
		},
		{
			"mimeType":"image/png",
			"name":"03_-_Default_baseColor",
			"uri":"textures/03_-_Default_baseColor.png"
		},
		{
			"mimeType":"image/png",
			"name":"01_-_Default_baseColor",
			"uri":"textures/01_-_Default_baseColor.png"
		},
		{
			"mimeType":"image/png",
			"name":"06_-_Default_baseColor",
			"uri":"textures/06_-_Default_baseColor.png"
		},
		{
			"mimeType":"image/png",
			"name":"20_-_Default_baseColor",
			"uri":"textures/20_-_Default_baseColor.png"
		},
		{
			"mimeType":"image/png",
			"name":"08_-_Default_baseColor",
			"uri":"textures/08_-_Default_baseColor.png"
		},
		{
			"mimeType":"image/png",
			"name":"11_-_Default_baseColor",
			"uri":"textures/11_-_Default_baseColor.png"
		},
		{
			"mimeType":"image/png",
			"name":"09_-_Default_baseColor",
			"uri":"textures/09_-_Default_baseColor.png"
		},
		{
			"mimeType":"image/png",
			"name":"INT_DETAILS_PLASTIC_NM_001_baseColor",
			"uri":"textures/INT_DETAILS_PLASTIC_NM_001_baseColor.png"
		},
		{
			"mimeType":"image/png",
			"name":"INT_LED_001_baseColor",
			"uri":"textures/INT_LED_001_baseColor.png"
		},
		{
			"mimeType":"image/png",
			"name":"INT_LCD_001_baseColor",
			"uri":"textures/INT_LCD_001_baseColor.png"
		},
		{
			"mimeType":"image/png",
			"name":"windows_int_baseColor",
			"uri":"textures/windows_int_baseColor.png"
		}
	],
	"accessors":[
		{
			"bufferView":0,
			"componentType":5126,
			"count":13525,
			"max":[
				0.9888535737991333,
				1.8579460382461548,
				-0.07397755235433578
			],
			"min":[
				-0.9899411201477051,
				-2.1202499866485596,
				-1.3978780508041382
			],
			"type":"VEC3"
		},
		{
			"bufferView":1,
			"componentType":5126,
			"count":13525,
			"type":"VEC3"
		},
		{
			"bufferView":2,
			"componentType":5126,
			"count":13525,
			"type":"VEC2"
		},
		{
			"bufferView":3,
			"componentType":5123,
			"count":62565,
			"type":"SCALAR"
		},
		{
			"bufferView":4,
			"componentType":5126,
			"count":43651,
			"max":[
				0.9893450736999512,
				1.6893060207366943,
				-0.03998085856437683
			],
			"min":[
				-0.9920074939727783,
				-1.4622420072555542,
				-0.6231625080108643
			],
			"type":"VEC3"
		},
		{
			"bufferView":5,
			"componentType":5126,
			"count":43651,
			"type":"VEC3"
		},
		{
			"bufferView":6,
			"componentType":5126,
			"count":43651,
			"type":"VEC2"
		},
		{
			"bufferView":7,
			"componentType":5123,
			"count":150027,
			"type":"SCALAR"
		},
		{
			"bufferView":8,
			"componentType":5126,
			"count":9467,
			"max":[
				0.9946761131286621,
				1.7778270244598389,
				-0.004068226087838411
			],
			"min":[
				-0.9958885908126831,
				-1.5505629777908325,
				-0.7128506898880005
			],
			"type":"VEC3"
		},
		{
			"bufferView":9,
			"componentType":5126,
			"count":9467,
			"type":"VEC3"
		},
		{
			"bufferView":10,
			"componentType":5126,
			"count":9467,
			"type":"VEC2"
		},
		{
			"bufferView":11,
			"componentType":5123,
			"count":30966,
			"type":"SCALAR"
		},
		{
			"bufferView":12,
			"componentType":5126,
			"count":24228,
			"max":[
				1.030452013015747,
				2.40752911567688,
				-0.0436156801879406
			],
			"min":[
				-1.031540036201477,
				-2.033371925354004,
				-1.1376019716262817
			],
			"type":"VEC3"
		},
		{
			"bufferView":13,
			"componentType":5126,
			"count":24228,
			"type":"VEC3"
		},
		{
			"bufferView":14,
			"componentType":5126,
			"count":24228,
			"type":"VEC2"
		},
		{
			"bufferView":15,
			"componentType":5123,
			"count":103407,
			"type":"SCALAR"
		},
		{
			"bufferView":16,
			"componentType":5126,
			"count":18409,
			"max":[
				1.0012099742889404,
				2.3270740509033203,
				-0.052969980984926224
			],
			"min":[
				-1.0023030042648315,
				-2.0684080123901367,
				-0.7471752166748047
			],
			"type":"VEC3"
		},
		{
			"bufferView":17,
			"componentType":5126,
			"count":18409,
			"type":"VEC3"
		},
		{
			"bufferView":18,
			"componentType":5126,
			"count":18409,
			"type":"VEC2"
		},
		{
			"bufferView":19,
			"componentType":5123,
			"count":78303,
			"type":"SCALAR"
		},
		{
			"bufferView":20,
			"componentType":5126,
			"count":40888,
			"max":[
				1.0058879852294922,
				2.376171112060547,
				-0.07496959716081619
			],
			"min":[
				-1.0069819688796997,
				-2.014185905456543,
				-1.2081079483032227
			],
			"type":"VEC3"
		},
		{
			"bufferView":21,
			"componentType":5126,
			"count":40888,
			"type":"VEC3"
		},
		{
			"bufferView":22,
			"componentType":5126,
			"count":40888,
			"type":"VEC2"
		},
		{
			"bufferView":23,
			"componentType":5126,
			"count":40888,
			"type":"VEC2"
		},
		{
			"bufferView":24,
			"componentType":5126,
			"count":40888,
			"type":"VEC2"
		},
		{
			"bufferView":25,
			"componentType":5123,
			"count":196032,
			"type":"SCALAR"
		},
		{
			"bufferView":26,
			"componentType":5126,
			"count":755,
			"max":[
				0.8571810126304626,
				2.3097169399261475,
				-0.2782076895236969
			],
			"min":[
				-0.8582655191421509,
				-1.9392869472503662,
				-0.6688663959503174
			],
			"type":"VEC3"
		},
		{
			"bufferView":27,
			"componentType":5126,
			"count":755,
			"type":"VEC3"
		},
		{
			"bufferView":28,
			"componentType":5126,
			"count":755,
			"type":"VEC2"
		},
		{
			"bufferView":29,
			"componentType":5123,
			"count":3906,
			"type":"SCALAR"
		},
		{
			"bufferView":30,
			"componentType":5126,
			"count":23943,
			"max":[
				0.8798050284385681,
				1.6330939531326294,
				-0.1769205927848816
			],
			"min":[
				-0.8684366941452026,
				-1.3752739429473877,
				-0.739403486251831
			],
			"type":"VEC3"
		},
		{
			"bufferView":31,
			"componentType":5126,
			"count":23943,
			"type":"VEC3"
		},
		{
			"bufferView":32,
			"componentType":5126,
			"count":23943,
			"type":"VEC2"
		},
		{
			"bufferView":33,
			"componentType":5123,
			"count":90612,
			"type":"SCALAR"
		},
		{
			"bufferView":34,
			"componentType":5126,
			"count":26353,
			"max":[
				1.0115469694137573,
				2.345597982406616,
				-0.06893154233694077
			],
			"min":[
				-1.0126760005950928,
				-1.9942189455032349,
				-1.1861629486083984
			],
			"type":"VEC3"
		},
		{
			"bufferView":35,
			"componentType":5126,
			"count":26353,
			"type":"VEC3"
		},
		{
			"bufferView":36,
			"componentType":5126,
			"count":26353,
			"type":"VEC2"
		},
		{
			"bufferView":37,
			"componentType":5123,
			"count":48027,
			"type":"SCALAR"
		},
		{
			"bufferView":38,
			"componentType":5126,
			"count":40866,
			"max":[
				0.7100732922554016,
				0.8132194876670837,
				-0.0753178671002388
			],
			"min":[
				-0.66965252161026,
				-0.9966983199119568,
				-1.117663025856018
			],
			"type":"VEC3"
		},
		{
			"bufferView":39,
			"componentType":5126,
			"count":40866,
			"type":"VEC3"
		},
		{
			"bufferView":40,
			"componentType":5126,
			"count":40866,
			"type":"VEC2"
		},
		{
			"bufferView":41,
			"componentType":5123,
			"count":167817,
			"type":"SCALAR"
		},
		{
			"bufferView":42,
			"componentType":5126,
			"count":10050,
			"max":[
				0.7357509732246399,
				0.8263090252876282,
				-0.10472770035266876
			],
			"min":[
				-0.734382688999176,
				-1.62322998046875,
				-1.124230980873108
			],
			"type":"VEC3"
		},
		{
			"bufferView":43,
			"componentType":5126,
			"count":10050,
			"type":"VEC3"
		},
		{
			"bufferView":44,
			"componentType":5126,
			"count":10050,
			"type":"VEC2"
		},
		{
			"bufferView":45,
			"componentType":5123,
			"count":38148,
			"type":"SCALAR"
		},
		{
			"bufferView":46,
			"componentType":5126,
			"count":17462,
			"max":[
				0.9337608814239502,
				0.8131545782089233,
				-0.07964113354682922
			],
			"min":[
				-0.9348592758178711,
				-1.8606979846954346,
				-1.1929810047149658
			],
			"type":"VEC3"
		},
		{
			"bufferView":47,
			"componentType":5126,
			"count":17462,
			"type":"VEC3"
		},
		{
			"bufferView":48,
			"componentType":5126,
			"count":17462,
			"type":"VEC2"
		},
		{
			"bufferView":49,
			"componentType":5123,
			"count":81618,
			"type":"SCALAR"
		},
		{
			"bufferView":50,
			"componentType":5126,
			"count":2486,
			"max":[
				-0.2899543046951294,
				0.37554121017456055,
				-0.7154054045677185
			],
			"min":[
				-0.5081309080123901,
				0.34479770064353943,
				-0.8490983843803406
			],
			"type":"VEC3"
		},
		{
			"bufferView":51,
			"componentType":5126,
			"count":2486,
			"type":"VEC3"
		},
		{
			"bufferView":52,
			"componentType":5126,
			"count":2486,
			"type":"VEC2"
		},
		{
			"bufferView":53,
			"componentType":5126,
			"count":2486,
			"type":"VEC2"
		},
		{
			"bufferView":54,
			"componentType":5123,
			"count":8736,
			"type":"SCALAR"
		},
		{
			"bufferView":55,
			"componentType":5126,
			"count":480,
			"max":[
				-0.2972007095813751,
				0.35266339778900146,
				-0.762588620185852
			],
			"min":[
				-0.5004634857177734,
				0.3486863076686859,
				-0.8411046266555786
			],
			"type":"VEC3"
		},
		{
			"bufferView":56,
			"componentType":5126,
			"count":480,
			"type":"VEC3"
		},
		{
			"bufferView":57,
			"componentType":5126,
			"count":480,
			"type":"VEC2"
		},
		{
			"bufferView":58,
			"componentType":5123,
			"count":933,
			"type":"SCALAR"
		},
		{
			"bufferView":59,
			"componentType":5126,
			"count":198,
			"max":[
				-0.3206388056278229,
				0.3553586006164551,
				-0.7304779291152954
			],
			"min":[
				-0.4770246148109436,
				0.35156020522117615,
				-0.8200368881225586
			],
			"type":"VEC3"
		},
		{
			"bufferView":60,
			"componentType":5126,
			"count":198,
			"type":"VEC3"
		},
		{
			"bufferView":61,
			"componentType":5126,
			"count":198,
			"type":"VEC2"
		},
		{
			"bufferView":62,
			"componentType":5123,
			"count":546,
			"type":"SCALAR"
		},
		{
			"bufferView":63,
			"componentType":5126,
			"count":152,
			"max":[
				0.963444709777832,
				0.4728463888168335,
				-0.6506093740463257
			],
			"min":[
				-0.9645330905914307,
				0.2757152020931244,
				-0.8957679271697998
			],
			"type":"VEC3"
		},
		{
			"bufferView":64,
			"componentType":5126,
			"count":152,
			"type":"VEC3"
		},
		{
			"bufferView":65,
			"componentType":5126,
			"count":152,
			"type":"VEC2"
		},
		{
			"bufferView":66,
			"componentType":5123,
			"count":498,
			"type":"SCALAR"
		},
		{
			"bufferView":67,
			"componentType":5126,
			"count":337,
			"max":[
				0.6674352884292603,
				0.7541326284408569,
				-0.828312873840332
			],
			"min":[
				-0.6685249209403992,
				0.14892520010471344,
				-1.129431962966919
			],
			"type":"VEC3"
		},
		{
			"bufferView":68,
			"componentType":5126,
			"count":337,
			"type":"VEC3"
		},
		{
			"bufferView":69,
			"componentType":5126,
			"count":337,
			"type":"VEC2"
		},
		{
			"bufferView":70,
			"componentType":5123,
			"count":1764,
			"type":"SCALAR"
		},
		{
			"bufferView":71,
			"componentType":5126,
			"count":1608,
			"max":[
				0.7634660005569458,
				0.4762082099914551,
				-0.8072798252105713
			],
			"min":[
				-0.7645553946495056,
				-1.692878007888794,
				-1.0956039428710938
			],
			"type":"VEC3"
		},
		{
			"bufferView":72,
			"componentType":5126,
			"count":1608,
			"type":"VEC3"
		},
		{
			"bufferView":73,
			"componentType":5126,
			"count":1608,
			"type":"VEC2"
		},
		{
			"bufferView":74,
			"componentType":5123,
			"count":7377,
			"type":"SCALAR"
		}
	],
	"bufferViews":[
		{
			"buffer":0,
			"byteLength":162300,
			"byteOffset":0,
			"target":34962
		},
		{
			"buffer":0,
			"byteLength":162300,
			"byteOffset":162300,
			"target":34962
		},
		{
			"buffer":0,
			"byteLength":108200,
			"byteOffset":324600,
			"target":34962
		},
		{
			"buffer":0,
			"byteLength":125130,
			"byteOffset":432800,
			"target":34963
		},
		{
			"buffer":0,
			"byteLength":523812,
			"byteOffset":557932,
			"target":34962
		},
		{
			"buffer":0,
			"byteLength":523812,
			"byteOffset":1081744,
			"target":34962
		},
		{
			"buffer":0,
			"byteLength":349208,
			"byteOffset":1605556,
			"target":34962
		},
		{
			"buffer":0,
			"byteLength":300054,
			"byteOffset":1954764,
			"target":34963
		},
		{
			"buffer":0,
			"byteLength":113604,
			"byteOffset":2254820,
			"target":34962
		},
		{
			"buffer":0,
			"byteLength":113604,
			"byteOffset":2368424,
			"target":34962
		},
		{
			"buffer":0,
			"byteLength":75736,
			"byteOffset":2482028,
			"target":34962
		},
		{
			"buffer":0,
			"byteLength":61932,
			"byteOffset":2557764,
			"target":34963
		},
		{
			"buffer":0,
			"byteLength":290736,
			"byteOffset":2619696,
			"target":34962
		},
		{
			"buffer":0,
			"byteLength":290736,
			"byteOffset":2910432,
			"target":34962
		},
		{
			"buffer":0,
			"byteLength":193824,
			"byteOffset":3201168,
			"target":34962
		},
		{
			"buffer":0,
			"byteLength":206814,
			"byteOffset":3394992,
			"target":34963
		},
		{
			"buffer":0,
			"byteLength":220908,
			"byteOffset":3601808,
			"target":34962
		},
		{
			"buffer":0,
			"byteLength":220908,
			"byteOffset":3822716,
			"target":34962
		},
		{
			"buffer":0,
			"byteLength":147272,
			"byteOffset":4043624,
			"target":34962
		},
		{
			"buffer":0,
			"byteLength":156606,
			"byteOffset":4190896,
			"target":34963
		},
		{
			"buffer":0,
			"byteLength":490656,
			"byteOffset":4347504,
			"target":34962
		},
		{
			"buffer":0,
			"byteLength":490656,
			"byteOffset":4838160,
			"target":34962
		},
		{
			"buffer":0,
			"byteLength":327104,
			"byteOffset":5328816,
			"target":34962
		},
		{
			"buffer":0,
			"byteLength":327104,
			"byteOffset":5655920,
			"target":34962
		},
		{
			"buffer":0,
			"byteLength":327104,
			"byteOffset":5983024,
			"target":34962
		},
		{
			"buffer":0,
			"byteLength":392064,
			"byteOffset":6310128,
			"target":34963
		},
		{
			"buffer":0,
			"byteLength":9060,
			"byteOffset":6702192,
			"target":34962
		},
		{
			"buffer":0,
			"byteLength":9060,
			"byteOffset":6711252,
			"target":34962
		},
		{
			"buffer":0,
			"byteLength":6040,
			"byteOffset":6720312,
			"target":34962
		},
		{
			"buffer":0,
			"byteLength":7812,
			"byteOffset":6726352,
			"target":34963
		},
		{
			"buffer":0,
			"byteLength":287316,
			"byteOffset":6734164,
			"target":34962
		},
		{
			"buffer":0,
			"byteLength":287316,
			"byteOffset":7021480,
			"target":34962
		},
		{
			"buffer":0,
			"byteLength":191544,
			"byteOffset":7308796,
			"target":34962
		},
		{
			"buffer":0,
			"byteLength":181224,
			"byteOffset":7500340,
			"target":34963
		},
		{
			"buffer":0,
			"byteLength":316236,
			"byteOffset":7681564,
			"target":34962
		},
		{
			"buffer":0,
			"byteLength":316236,
			"byteOffset":7997800,
			"target":34962
		},
		{
			"buffer":0,
			"byteLength":210824,
			"byteOffset":8314036,
			"target":34962
		},
		{
			"buffer":0,
			"byteLength":96054,
			"byteOffset":8524860,
			"target":34963
		},
		{
			"buffer":0,
			"byteLength":490392,
			"byteOffset":8620916,
			"target":34962
		},
		{
			"buffer":0,
			"byteLength":490392,
			"byteOffset":9111308,
			"target":34962
		},
		{
			"buffer":0,
			"byteLength":326928,
			"byteOffset":9601700,
			"target":34962
		},
		{
			"buffer":0,
			"byteLength":335634,
			"byteOffset":9928628,
			"target":34963
		},
		{
			"buffer":0,
			"byteLength":120600,
			"byteOffset":10264264,
			"target":34962
		},
		{
			"buffer":0,
			"byteLength":120600,
			"byteOffset":10384864,
			"target":34962
		},
		{
			"buffer":0,
			"byteLength":80400,
			"byteOffset":10505464,
			"target":34962
		},
		{
			"buffer":0,
			"byteLength":76296,
			"byteOffset":10585864,
			"target":34963
		},
		{
			"buffer":0,
			"byteLength":209544,
			"byteOffset":10662160,
			"target":34962
		},
		{
			"buffer":0,
			"byteLength":209544,
			"byteOffset":10871704,
			"target":34962
		},
		{
			"buffer":0,
			"byteLength":139696,
			"byteOffset":11081248,
			"target":34962
		},
		{
			"buffer":0,
			"byteLength":163236,
			"byteOffset":11220944,
			"target":34963
		},
		{
			"buffer":0,
			"byteLength":29832,
			"byteOffset":11384180,
			"target":34962
		},
		{
			"buffer":0,
			"byteLength":29832,
			"byteOffset":11414012,
			"target":34962
		},
		{
			"buffer":0,
			"byteLength":19888,
			"byteOffset":11443844,
			"target":34962
		},
		{
			"buffer":0,
			"byteLength":19888,
			"byteOffset":11463732,
			"target":34962
		},
		{
			"buffer":0,
			"byteLength":17472,
			"byteOffset":11483620,
			"target":34963
		},
		{
			"buffer":0,
			"byteLength":5760,
			"byteOffset":11501092,
			"target":34962
		},
		{
			"buffer":0,
			"byteLength":5760,
			"byteOffset":11506852,
			"target":34962
		},
		{
			"buffer":0,
			"byteLength":3840,
			"byteOffset":11512612,
			"target":34962
		},
		{
			"buffer":0,
			"byteLength":1866,
			"byteOffset":11516452,
			"target":34963
		},
		{
			"buffer":0,
			"byteLength":2376,
			"byteOffset":11518320,
			"target":34962
		},
		{
			"buffer":0,
			"byteLength":2376,
			"byteOffset":11520696,
			"target":34962
		},
		{
			"buffer":0,
			"byteLength":1584,
			"byteOffset":11523072,
			"target":34962
		},
		{
			"buffer":0,
			"byteLength":1092,
			"byteOffset":11524656,
			"target":34963
		},
		{
			"buffer":0,
			"byteLength":1824,
			"byteOffset":11525748,
			"target":34962
		},
		{
			"buffer":0,
			"byteLength":1824,
			"byteOffset":11527572,
			"target":34962
		},
		{
			"buffer":0,
			"byteLength":1216,
			"byteOffset":11529396,
			"target":34962
		},
		{
			"buffer":0,
			"byteLength":996,
			"byteOffset":11530612,
			"target":34963
		},
		{
			"buffer":0,
			"byteLength":4044,
			"byteOffset":11531608,
			"target":34962
		},
		{
			"buffer":0,
			"byteLength":4044,
			"byteOffset":11535652,
			"target":34962
		},
		{
			"buffer":0,
			"byteLength":2696,
			"byteOffset":11539696,
			"target":34962
		},
		{
			"buffer":0,
			"byteLength":3528,
			"byteOffset":11542392,
			"target":34963
		},
		{
			"buffer":0,
			"byteLength":19296,
			"byteOffset":11545920,
			"target":34962
		},
		{
			"buffer":0,
			"byteLength":19296,
			"byteOffset":11565216,
			"target":34962
		},
		{
			"buffer":0,
			"byteLength":12864,
			"byteOffset":11584512,
			"target":34962
		},
		{
			"buffer":0,
			"byteLength":14754,
			"byteOffset":11597376,
			"target":34963
		}
	],
	"samplers":[
		{
			"magFilter":9729,
			"minFilter":9987
		}
	],
	"buffers":[
		{
			"byteLength":11612132,
			"uri":"toyota.bin"
		}
	]
}
